<?xml version="1.0"?>
<svg xmlns="http://www.w3.org/2000/svg"
     xmlns:cc="http://creativecommons.org/ns#"
     xmlns:dc="http://purl.org/dc/elements/1.1/"
     xmlns:rdf="http://www.w3.org/1999/02/22-rdf-syntax-ns#"
     version="1.1"
     height="24"
     width="24">
  <g transform="translate(0 -1028.4)">
    <path fill="#211ebd" d="m-2e-7 1035v9.4l12 8v-9.4l-12-8z"/>
    <path fill="#1051c2" d="m24 1035v9.4l-12 8v-9.4l12-8z"/>
    <path fill="#0f75f1" d="m8 1029.7-8 5.3 12 8 12-8-8-5.3h-8z"/>
    <path fill="#1051c2" d="m5.3333 1032.4v2.6c0 2.2 2.9848 4 6.6667 4 3.682 0 6.667-1.8 6.667-4v-2.6h-13.334z"/>
    <path fill="#211ebd" d="m5.3333 1032.4v2.6c0 2.2 2.9848 4 6.6667 4v-6.6h-6.6667z"/>
    <path fill="#0f75f1" d="m16 9a3.5 3 0 1 1 -7 0 3.5 3 0 1 1 7 0z" transform="matrix(1.9048 0 0 1.3333 -11.81 1020.4)"/>
  </g>
</svg>
